<svg width="120" height="111" viewBox="0 0 120 111" fill="none" xmlns="http://www.w3.org/2000/svg">
<g clip-path="url(#clip0)">
<path fill-rule="evenodd" clip-rule="evenodd" d="M52.2901 46.0839C56.1402 45.7325 59.5458 48.5743 59.8961 52.4317C60.2469 56.2886 57.4101 59.6997 53.56 60.0511C49.7099 60.4025 46.3044 57.5603 45.9536 53.7038C45.6032 49.8464 48.44 46.4349 52.2901 46.0839ZM52.6092 49.5931C50.6938 49.7677 49.2823 51.4649 49.457 53.3832C49.6313 55.3025 51.3255 56.7165 53.2409 56.5414C55.1568 56.3669 56.5678 54.6696 56.3936 52.7509C56.2189 50.8321 54.5246 49.4181 52.6092 49.5931Z" fill="#455AF7"/>
<path d="M58.4424 6.54626C79.5159 9.03294 96.7803 25.7212 99.3573 47.5398M99.3647 58.5942C96.8828 79.7054 80.2221 96.9988 58.4424 99.5804M47.4079 99.5882C26.3339 97.1015 9.06996 80.4128 6.49295 58.5942M6.4856 47.5398C8.96789 26.4291 25.6281 9.13565 47.4079 6.55409" stroke="#A8A9B3" stroke-width="2.0001" stroke-miterlimit="22.9256"/>
<path d="M52.925 12.228V0.448608" stroke="#455AF7" stroke-width="2.0001" stroke-miterlimit="22.9256"/>
<path d="M52.925 105.686V93.9065" stroke="#455AF7" stroke-width="2.0001" stroke-miterlimit="22.9256"/>
<path d="M93.6921 53.0673H105.451" stroke="#455AF7" stroke-width="2.0001" stroke-miterlimit="22.9256"/>
<path d="M0.39917 53.0673H12.1578" stroke="#455AF7" stroke-width="2.0001" stroke-miterlimit="22.9256"/>
<path d="M88.5266 110.617L85.1468 107.232C83.2424 105.323 83.2424 102.202 85.1468 100.294L100.069 85.3457C101.974 83.4375 105.09 83.4375 106.994 85.3457L119.542 97.9154" stroke="#A8A9B3" stroke-width="2.0001" stroke-miterlimit="22.9256"/>
<path d="M97.9724 98.1936L103.897 104.13" stroke="#A8A9B3" stroke-width="2.0001" stroke-miterlimit="22.9256"/>
<path d="M79.4736 91.5737L86.6631 98.7758" stroke="#A8A9B3" stroke-width="2.0001" stroke-miterlimit="22.9256"/>
<path d="M91.3638 79.6626L98.5537 86.8652" stroke="#A8A9B3" stroke-width="2.0001" stroke-miterlimit="22.9256"/>
<path d="M53.3031 27.8587C54.4364 27.8587 55.3551 26.9384 55.3551 25.8031C55.3551 24.6679 54.4364 23.7476 53.3031 23.7476C52.1699 23.7476 51.2512 24.6679 51.2512 25.8031C51.2512 26.9384 52.1699 27.8587 53.3031 27.8587Z" fill="#A8A9B3"/>
<path d="M58.2429 82.1953C59.3761 82.1953 60.2948 81.275 60.2948 80.1397C60.2948 79.0044 59.3761 78.0841 58.2429 78.0841C57.1096 78.0841 56.1909 79.0044 56.1909 80.1397C56.1909 81.275 57.1096 82.1953 58.2429 82.1953Z" fill="#A8A9B3"/>
<path d="M67.1941 30.2616C68.3274 30.2616 69.2461 29.3412 69.2461 28.206C69.2461 27.0707 68.3274 26.1504 67.1941 26.1504C66.0609 26.1504 65.1422 27.0707 65.1422 28.206C65.1422 29.3412 66.0609 30.2616 67.1941 30.2616Z" fill="#A8A9B3"/>
<path d="M44.3519 79.792C45.4849 79.792 46.4034 78.8719 46.4034 77.7369C46.4034 76.6018 45.4849 75.6817 44.3519 75.6817C43.2189 75.6817 42.3004 76.6018 42.3004 77.7369C42.3004 78.8719 43.2189 79.792 44.3519 79.792Z" fill="#A8A9B3"/>
<path d="M78.025 39.3005C79.1582 39.3005 80.0769 38.3801 80.0769 37.2449C80.0769 36.1096 79.1582 35.1893 78.025 35.1893C76.8917 35.1893 75.973 36.1096 75.973 37.2449C75.973 38.3801 76.8917 39.3005 78.025 39.3005Z" fill="#A8A9B3"/>
<path d="M33.5211 70.7535C34.6541 70.7535 35.5726 69.8334 35.5726 68.6984C35.5726 67.5634 34.6541 66.6433 33.5211 66.6433C32.3881 66.6433 31.4696 67.5634 31.4696 68.6984C31.4696 69.8334 32.3881 70.7535 33.5211 70.7535Z" fill="#A8A9B3"/>
<path d="M82.893 52.5523C84.026 52.5523 84.9445 51.6322 84.9445 50.4972C84.9445 49.3622 84.026 48.4421 82.893 48.4421C81.76 48.4421 80.8415 49.3622 80.8415 50.4972C80.8415 51.6322 81.76 52.5523 82.893 52.5523Z" fill="#A8A9B3"/>
<path d="M28.6525 57.5012C29.7858 57.5012 30.7045 56.5809 30.7045 55.4457C30.7045 54.3104 29.7858 53.3901 28.6525 53.3901C27.5193 53.3901 26.6006 54.3104 26.6006 55.4457C26.6006 56.5809 27.5193 57.5012 28.6525 57.5012Z" fill="#A8A9B3"/>
<path d="M80.4948 66.4683C81.6281 66.4683 82.5468 65.548 82.5468 64.4127C82.5468 63.2775 81.6281 62.3571 80.4948 62.3571C79.3615 62.3571 78.4428 63.2775 78.4428 64.4127C78.4428 65.548 79.3615 66.4683 80.4948 66.4683Z" fill="#A8A9B3"/>
<path d="M31.0511 43.5857C32.1844 43.5857 33.1031 42.6654 33.1031 41.5301C33.1031 40.3949 32.1844 39.4746 31.0511 39.4746C29.9179 39.4746 28.9992 40.3949 28.9992 41.5301C28.9992 42.6654 29.9179 43.5857 31.0511 43.5857Z" fill="#A8A9B3"/>
<path d="M71.4723 77.3182C72.6056 77.3182 73.5243 76.3979 73.5243 75.2626C73.5243 74.1273 72.6056 73.207 71.4723 73.207C70.3391 73.207 69.4204 74.1273 69.4204 75.2626C69.4204 76.3979 70.3391 77.3182 71.4723 77.3182Z" fill="#A8A9B3"/>
<path d="M40.0737 32.7358C41.207 32.7358 42.1257 31.8155 42.1257 30.6802C42.1257 29.545 41.207 28.6246 40.0737 28.6246C38.9405 28.6246 38.0218 29.545 38.0218 30.6802C38.0218 31.8155 38.9405 32.7358 40.0737 32.7358Z" fill="#A8A9B3"/>
</g>
<defs>
<clipPath id="clip0">
<rect width="120" height="111" fill="white"/>
</clipPath>
</defs>
</svg>
